<?xml version="1.0" encoding="UTF-8"?>
<svg width="256" height="256" viewBox="0 0 256 256" xmlns="http://www.w3.org/2000/svg">

  <!-- Background -->
  <rect x="20" y="40" width="216" height="160" rx="12" ry="12"
        fill="#2b2b2b" stroke="#111111" stroke-width="4"/>

  <!-- Top Panel -->
  <rect x="30" y="50" width="196" height="35" rx="6"
        fill="#3d3d3d"/>

  <!-- OLT Label -->
  <text x="128" y="73" font-size="18" text-anchor="middle"
        fill="#f5f5f5" font-family="Arial" font-weight="bold">
    FTTH OLT
  </text>

  <!-- Ports -->
  <g>
    <rect x="45" y="105" width="20" height="14" fill="#d4af37" stroke="#000"/>
    <rect x="75" y="105" width="20" height="14" fill="#d4af37" stroke="#000"/>
    <rect x="105" y="105" width="20" height="14" fill="#d4af37" stroke="#000"/>
    <rect x="135" y="105" width="20" height="14" fill="#d4af37" stroke="#000"/>
    <rect x="165" y="105" width="20" height="14" fill="#d4af37" stroke="#000"/>
    <rect x="195" y="105" width="20" height="14" fill="#d4af37" stroke="#000"/>
  </g>

  <!-- Fiber Indicators -->
  <circle cx="55" cy="145" r="6" fill="#00ff66"/>
  <circle cx="85" cy="145" r="6" fill="#00ff66"/>
  <circle cx="115" cy="145" r="6" fill="#00ff66"/>
  <circle cx="145" cy="145" r="6" fill="#00ff66"/>
  <circle cx="175" cy="145" r="6" fill="#00ff66"/>
  <circle cx="205" cy="145" r="6" fill="#00ff66"/>

  <!-- Fiber Line Graphic -->
  <path d="M40 185 Q128 130 216 185"
        stroke="#00ccff"
        stroke-width="4"
        fill="none"/>

  <!-- Rack Ears -->
  <rect x="10" y="70" width="10" height="100" fill="#1a1a1a"/>
  <rect x="236" y="70" width="10" height="100" fill="#1a1a1a"/>

</svg>
